<?xml version="1.0" encoding="UTF-8" standalone="no"?>
<svg
   xmlns:osb="http://www.openswatchbook.org/uri/2009/osb"
   xmlns:dc="http://purl.org/dc/elements/1.1/"
   xmlns:cc="http://creativecommons.org/ns#"
   xmlns:rdf="http://www.w3.org/1999/02/22-rdf-syntax-ns#"
   xmlns:svg="http://www.w3.org/2000/svg"
   xmlns="http://www.w3.org/2000/svg"
   xmlns:xlink="http://www.w3.org/1999/xlink"
   xmlns:sodipodi="http://sodipodi.sourceforge.net/DTD/sodipodi-0.dtd"
   xmlns:inkscape="http://www.inkscape.org/namespaces/inkscape"
   version="1.1"
   id="svg2"
   viewBox="0 0 99.999997 100"
   height="100"
   width="100"
   sodipodi:docname="bitwarden-search-locked.svg"
   inkscape:version="0.92.4 (5da689c313, 2019-01-14)">
  <sodipodi:namedview
     pagecolor="#ffffff"
     bordercolor="#666666"
     borderopacity="1"
     objecttolerance="10"
     gridtolerance="10"
     guidetolerance="10"
     inkscape:pageopacity="0"
     inkscape:pageshadow="2"
     inkscape:window-width="1920"
     inkscape:window-height="1026"
     id="namedview66"
     showgrid="false"
     inkscape:zoom="5.840702"
     inkscape:cx="55.943297"
     inkscape:cy="50.507423"
     inkscape:window-x="0"
     inkscape:window-y="28"
     inkscape:window-maximized="1"
     inkscape:current-layer="svg2"
     inkscape:snap-grids="false"
     inkscape:snap-to-guides="false" />
  <defs
     id="defs4">
    <linearGradient
       id="linearGradient4316">
      <stop
         id="stop4318"
         offset="0"
         style="stop-color:#226e23;stop-opacity:1" />
      <stop
         id="stop4320"
         offset="1"
         style="stop-color:#63ab3a;stop-opacity:1" />
    </linearGradient>
    <linearGradient
       osb:paint="solid"
       id="linearGradient4153">
      <stop
         id="stop4155"
         offset="0"
         style="stop-color:#b3b3b3;stop-opacity:1;" />
    </linearGradient>
    <linearGradient
       xlink:href="#linearGradient4316"
       id="linearGradient5199"
       x1="53.238865"
       y1="12.753036"
       x2="53.238865"
       y2="86.356995"
       gradientUnits="userSpaceOnUse"
       gradientTransform="matrix(0.67463385,0,0,0.67463385,1.8864744,2.2288992)" />
    <filter
       inkscape:label="Blend Opposites"
       inkscape:menu="Color"
       inkscape:menu-tooltip="Blend an image with its hue opposite"
       style="color-interpolation-filters:sRGB;"
       id="filter137">
      <feColorMatrix
         type="hueRotate"
         values="180"
         result="fbSourceGraphic"
         in="SourceGraphic"
         id="feColorMatrix119" />
      <feColorMatrix
         values="1 0 0 0 0 0 1 0 0 0 0 0 1 0 0 -0.2125 -0.7154 -0.0721 1 0 "
         in="SourceGraphic"
         result="result1"
         id="feColorMatrix121" />
      <feColorMatrix
         type="hueRotate"
         values="0"
         id="feColorMatrix123" />
      <feColorMatrix
         values="1 0 0 0 0 0 1 0 0 0 0 0 1 0 0 0 0 0 1 0 "
         result="result3"
         id="feColorMatrix125" />
      <feComposite
         in2="result3"
         result="result6"
         operator="atop"
         id="feComposite127" />
      <feComposite
         in2="result6"
         operator="arithmetic"
         k2="0.5"
         k1="0.5"
         k3="0.5"
         in="result6"
         result="result4"
         id="feComposite129" />
      <feBlend
         in2="fbSourceGraphic"
         mode="normal"
         result="result2"
         in="result4"
         id="feBlend131" />
      <feComposite
         in2="result2"
         operator="arithmetic"
         k2="1"
         result="result5"
         id="feComposite133" />
      <feComposite
         in2="SourceGraphic"
         operator="in"
         result="result5"
         id="feComposite135" />
    </filter>
  </defs>
  <metadata
     id="metadata7">
    <rdf:RDF>
      <cc:Work
         rdf:about="">
        <dc:format>image/svg+xml</dc:format>
        <dc:type
           rdf:resource="http://purl.org/dc/dcmitype/StillImage" />
        <dc:title />
      </cc:Work>
    </rdf:RDF>
  </metadata>
  <g
     transform="translate(0.17662047,0.47786766)"
     id="g96"
     style="filter:url(#filter137)">
    <path
       sodipodi:nodetypes="sscsscsscsscs"
       d="m 60.265547,54.129704 c -1.08195,4.154108 -3.480008,7.772753 -7.772753,7.772753 L 35.526551,65.925946 18.292674,61.902457 C 14.112343,60.9265 10.519921,58.422399 10.519921,54.129704 L 7.2668874,37.421906 10.519921,19.929584 c 0.784853,-4.220337 3.480008,-7.772753 7.772753,-7.772753 L 35.184127,6.7636437 52.492794,12.156831 c 4.098401,1.277016 7.772753,3.480057 7.772753,7.772753 l 4.708338,16.122623 z"
       id="Background"
       style="fill:#3c8dbc;stroke-width:0.04857971"
       inkscape:connector-curvature="0" />
    <path
       d="M 46.537703,38.86814 V 22.977232 H 35.414549 v 28.231127 c 1.969519,-1.042759 3.732424,-2.176711 5.288578,-3.401599 3.889784,-3.045898 5.834576,-6.025388 5.834576,-8.93862 z m 4.767272,-19.06909 v 19.069049 c 0,1.423378 -0.27691,2.834523 -0.831593,4.233475 -0.554435,1.398752 -1.241601,2.640303 -2.060803,3.724463 -0.819341,1.083909 -1.795844,2.139252 -2.929987,3.165788 -1.133461,1.026155 -2.181035,1.878676 -3.140873,2.557532 -0.960078,0.678564 -1.961447,1.319768 -3.004406,1.924196 -1.04262,0.604228 -1.783512,1.013762 -2.221943,1.228868 -0.438916,0.215065 -0.790486,0.380869 -1.055494,0.496828 -0.198541,0.09915 -0.413897,0.14894 -0.645327,0.14894 -0.231778,0 -0.446885,-0.0498 -0.645726,-0.14894 -0.264901,-0.115963 -0.61662,-0.281763 -1.055343,-0.496828 -0.438483,-0.215106 -1.179325,-0.62459 -2.222276,-1.228868 C 30.448436,53.869125 29.446917,53.227871 28.486938,52.549357 27.5269,51.870501 26.479569,51.01803 25.346016,49.991825 24.212063,48.965289 23.235512,47.909946 22.415978,46.826037 21.596677,45.741877 20.90966,44.500326 20.355225,43.101574 19.800592,41.702622 19.523391,40.291477 19.523391,38.868099 V 19.79905 c 0,-0.430411 0.157351,-0.802877 0.471711,-1.11733 0.314702,-0.314559 0.687109,-0.471952 1.11733,-0.471952 h 28.603743 c 0.430271,0 0.802869,0.157393 1.11733,0.471952 0.314501,0.314453 0.47147,0.686919 0.47147,1.11733 z"
       id="Shield"
       style="fill:#ffffff;stroke-width:0.04857971"
       inkscape:connector-curvature="0" />
  </g>
  <circle
     style="opacity:1;fill:none;fill-opacity:1;fill-rule:evenodd;stroke:none;stroke-width:1.01195073;stroke-linecap:round;stroke-linejoin:round;stroke-miterlimit:4;stroke-dasharray:none;stroke-opacity:1"
     id="path3336"
     cx="35.618168"
     cy="35.960606"
     r="28.55147" />
  <g
     transform="matrix(1.5217899,0,0,1.5217899,-26.685184,-26.501953)"
     id="g358"
     style="fill:#e6e6e6">
    <path
       inkscape:connector-curvature="0"
       d="m 62,56 -1.6,1.6 -2.5,-2.5 C 61.1,51.3 63,46.3 63,41 63,28.9 53.1,19 41,19 28.9,19 19,28.9 19,41 c 0,12.1 9.9,22 22,22 5.3,0 10.3,-1.9 14.1,-5.1 l 2.5,2.5 -1.8,1.8 L 76,82 82,76 Z m -21,3 c -9.9,0 -18,-8.1 -18,-18 0,-9.9 8.1,-18 18,-18 9.9,0 18,8.1 18,18 0,9.9 -8.1,18 -18,18 z"
       id="path356"
       style="fill:#e6e6e6" />
  </g>
  <path
     inkscape:connector-curvature="0"
     d="m 65.957048,44.428709 h -0.619749 v -9.231856 c 0,-8.45701 -6.880288,-15.336657 -15.337299,-15.336657 -8.457009,0 -15.3373,6.879647 -15.3373,15.336657 v 9.231856 h -0.619746 c -3.264132,0 -5.913021,2.646958 -5.913021,5.91302 v 23.885054 c 0,3.266062 2.648245,5.913021 5.913021,5.913021 h 31.914094 c 3.264131,0 5.91302,-2.646318 5.91302,-5.913021 V 50.341729 c -6.44e-4,-3.266062 -2.648889,-5.91302 -5.91302,-5.91302 z M 40.454734,35.196853 c 0,-5.263028 4.281598,-9.544626 9.545267,-9.544626 5.263668,0 9.545266,4.281598 9.545266,9.544626 v 9.231856 H 40.454734 Z m 12.012672,29.776835 v 6.209701 c 0,1.362416 -1.10499,2.467405 -2.467405,2.467405 -1.362416,0 -2.467406,-1.104989 -2.467406,-2.467405 V 64.973688 C 45.565234,64.04632 44.201534,62.051286 44.201534,59.7319 c 0,-3.202993 2.595474,-5.79911 5.798467,-5.79911 3.202992,0 5.798466,2.596117 5.798466,5.79911 0,2.319386 -1.363702,4.313776 -3.331061,5.241788 z"
     id="path492"
     style="fill:#ff0000;stroke-width:0.6435591" />
</svg>
