<svg height='100px' width='100px'  fill="#FF0000" xmlns:x="http://ns.adobe.com/Extensibility/1.0/" xmlns:i="http://ns.adobe.com/AdobeIllustrator/10.0/" xmlns:graph="http://ns.adobe.com/Graphs/1.0/" xmlns="http://www.w3.org/2000/svg" xmlns:xlink="http://www.w3.org/1999/xlink" version="1.1" x="0px" y="0px" viewBox="0 0 96 96" style="enable-background:new 0 0 96 96;" xml:space="preserve"><style type="text/css">
	.st0{fill:#FF0000;}
	.st1{fill:none;stroke:#FF0000;stroke-width:6;stroke-linejoin:round;stroke-miterlimit:10;}
	.st2{fill:#FF0000;stroke:#FF0000;stroke-width:4;stroke-linejoin:round;stroke-miterlimit:10;}
</style><g><g i:extraneous="self"><g><g><path d="M48,4C23.7,4,4,23.7,4,48s19.7,44,44,44s44-19.7,44-44S72.3,4,48,4z M48,84c-19.9,0-36-16.1-36-36s16.1-36,36-36      s36,16.1,36,36S67.9,84,48,84z"></path><path d="M48,57c2.2,0,4-1.8,4-4V30c0-2.2-1.8-4-4-4s-4,1.8-4,4v23C44,55.2,45.8,57,48,57z"></path><circle cx="48" cy="66.3" r="5"></circle></g></g></g></g></svg>