<?xml version="1.0" encoding="UTF-8" standalone="no"?>
<svg
   xmlns:osb="http://www.openswatchbook.org/uri/2009/osb"
   xmlns:dc="http://purl.org/dc/elements/1.1/"
   xmlns:cc="http://creativecommons.org/ns#"
   xmlns:rdf="http://www.w3.org/1999/02/22-rdf-syntax-ns#"
   xmlns:svg="http://www.w3.org/2000/svg"
   xmlns="http://www.w3.org/2000/svg"
   xmlns:xlink="http://www.w3.org/1999/xlink"
   xmlns:sodipodi="http://sodipodi.sourceforge.net/DTD/sodipodi-0.dtd"
   xmlns:inkscape="http://www.inkscape.org/namespaces/inkscape"
   version="1.1"
   id="svg2"
   viewBox="0 0 99.999997 100"
   height="100"
   width="100"
   sodipodi:docname="keepassxc-search-locked.svg"
   inkscape:version="0.92.3 (2405546, 2018-03-11)">
  <sodipodi:namedview
     pagecolor="#ffffff"
     bordercolor="#666666"
     borderopacity="1"
     objecttolerance="10"
     gridtolerance="10"
     guidetolerance="10"
     inkscape:pageopacity="0"
     inkscape:pageshadow="2"
     inkscape:window-width="1853"
     inkscape:window-height="1016"
     id="namedview66"
     showgrid="false"
     inkscape:zoom="5.840702"
     inkscape:cx="81.368323"
     inkscape:cy="64.204407"
     inkscape:window-x="67"
     inkscape:window-y="27"
     inkscape:window-maximized="1"
     inkscape:current-layer="svg2"
     inkscape:snap-grids="false"
     inkscape:snap-to-guides="false" />
  <defs
     id="defs4">
    <linearGradient
       id="linearGradient4316">
      <stop
         id="stop4318"
         offset="0"
         style="stop-color:#226e23;stop-opacity:1" />
      <stop
         id="stop4320"
         offset="1"
         style="stop-color:#63ab3a;stop-opacity:1" />
    </linearGradient>
    <linearGradient
       osb:paint="solid"
       id="linearGradient4153">
      <stop
         id="stop4155"
         offset="0"
         style="stop-color:#b3b3b3;stop-opacity:1;" />
    </linearGradient>
    <linearGradient
       xlink:href="#linearGradient4316"
       id="linearGradient5199"
       x1="53.238865"
       y1="12.753036"
       x2="53.238865"
       y2="86.356995"
       gradientUnits="userSpaceOnUse"
       gradientTransform="matrix(0.67463385,0,0,0.67463385,1.8864744,2.2288992)" />
  </defs>
  <metadata
     id="metadata7">
    <rdf:RDF>
      <cc:Work
         rdf:about="">
        <dc:format>image/svg+xml</dc:format>
        <dc:type
           rdf:resource="http://purl.org/dc/dcmitype/StillImage" />
        <dc:title />
      </cc:Work>
    </rdf:RDF>
  </metadata>
  <circle
     style="opacity:1;fill:none;fill-opacity:1;fill-rule:evenodd;stroke:none;stroke-width:1.01195073;stroke-linecap:round;stroke-linejoin:round;stroke-miterlimit:4;stroke-dasharray:none;stroke-opacity:1"
     id="path3336"
     cx="35.618168"
     cy="35.960606"
     r="28.55147" />
  <path
     inkscape:connector-curvature="0"
     style="opacity:1;fill:#f9f9f9;fill-opacity:1;fill-rule:evenodd;stroke:none;stroke-width:1.68658459;stroke-linecap:round;stroke-linejoin:round;stroke-miterlimit:4;stroke-dasharray:none;stroke-opacity:1"
     d="M 35.618167,6.4954313 A 29.465626,29.465626 0 0 0 6.1530065,35.960592 29.465626,29.465626 0 0 0 35.618167,65.425752 29.465626,29.465626 0 0 0 65.083327,35.960592 29.465626,29.465626 0 0 0 35.618167,6.4954313 Z m 0,4.5274257 c 1.527526,0.0056 3.051637,0.151728 4.552461,0.43614 0.07229,0.326307 0.113317,0.663854 0.113317,1.011951 0,2.578889 -2.089522,4.667127 -4.667096,4.665778 -2.577566,0.0015 -4.665778,-2.085551 -4.665778,-4.66446 0,-0.349528 0.04185,-0.688356 0.114635,-1.015904 1.500919,-0.283458 3.025022,-0.428865 4.552461,-0.433505 z m -12.814091,3.574768 c -0.162269,0.822487 -0.250513,1.66914 -0.250351,2.539101 0,5.207944 3.055007,9.693111 7.464454,11.792916 v 23.672797 l 5.59867,5.59867 5.599988,-5.599988 -0.321505,-4.958296 2.640559,-2.639241 -2.640559,-2.639241 3.960838,-3.958204 -3.960838,-3.960838 0.321505,-5.516977 c 4.41077,-2.098495 7.465772,-6.583654 7.465772,-11.791598 0,-0.868227 -0.08999,-1.714233 -0.251669,-2.535147 7.510333,4.49815 12.112677,12.604683 12.124962,21.359013 C 60.555538,49.732964 49.39054,60.897954 35.618167,60.898327 21.845793,60.897954 10.6808,49.732964 10.680432,35.960592 10.690922,27.205028 15.292986,19.09691 22.804076,14.597625 Z m 9.079887,17.471963 h 1.867102 v 18.664431 h -1.865784 l -0.0013,-18.663113 v -0.0013 z"
     id="path4264" />
  <path
     inkscape:connector-curvature="0"
     style="opacity:0.93999999;fill:#ececec;fill-opacity:1;fill-rule:nonzero;stroke:none;stroke-width:0.53970706;stroke-linecap:round;stroke-linejoin:round;stroke-miterlimit:4;stroke-dasharray:none;stroke-opacity:1"
     d="m 40.1703,11.459115 c 0.07229,0.326307 0.113595,0.664278 0.113595,1.012376 0,2.578889 -2.089578,4.667063 -4.667151,4.665714 -2.577567,0.0015 -4.665727,-2.085394 -4.665727,-4.664304 0,-0.349528 0.04223,-0.689085 0.115011,-1.016633 1.500919,-0.283458 3.0247,-0.42842 4.552139,-0.433061 1.527526,0.0056 3.051308,0.151495 4.552133,0.435908 z m -17.616451,5.67809 c 0,5.207944 3.054863,9.692309 7.46431,11.792114 v 23.673697 l 5.598584,5.598584 5.600015,-5.600001 -0.320897,-4.958221 2.639559,-2.639573 -2.639559,-2.639572 3.960047,-3.958616 -3.960047,-3.960033 0.32089,-5.517682 c 4.410769,-2.098496 7.465734,-6.582753 7.465734,-11.790697 0,-0.868227 -0.08964,-1.71498 -0.251321,-2.535895 7.510333,4.49815 12.112072,12.60497 12.124357,21.359299 -3.64e-4,13.772373 -11.16498,24.936997 -24.937354,24.937368 -13.772374,-3.71e-4 -24.93699,-11.164995 -24.937355,-24.937368 0.01046,-8.755563 4.611845,-16.864278 12.122935,-21.363562 -0.16227,0.822486 -0.25006,1.670197 -0.249898,2.540158 z m 9.330031,14.932831 h 1.867143 v 18.664312 h -1.865727 l -0.0013,-18.662902 v -0.0013 z"
     id="path3336-3-2-7" />
  <g
     transform="matrix(1.5217899,0,0,1.5217899,-26.685184,-26.501953)"
     id="g358"
     style="fill:#e6e6e6">
    <path
       inkscape:connector-curvature="0"
       d="m 62,56 -1.6,1.6 -2.5,-2.5 C 61.1,51.3 63,46.3 63,41 63,28.9 53.1,19 41,19 28.9,19 19,28.9 19,41 c 0,12.1 9.9,22 22,22 5.3,0 10.3,-1.9 14.1,-5.1 l 2.5,2.5 -1.8,1.8 L 76,82 82,76 Z m -21,3 c -9.9,0 -18,-8.1 -18,-18 0,-9.9 8.1,-18 18,-18 9.9,0 18,8.1 18,18 0,9.9 -8.1,18 -18,18 z"
       id="path356"
       style="fill:#e6e6e6" />
  </g>
  <path
     inkscape:connector-curvature="0"
     d="m 65.957048,44.428709 h -0.619749 v -9.231856 c 0,-8.45701 -6.880288,-15.336657 -15.337299,-15.336657 -8.457009,0 -15.3373,6.879647 -15.3373,15.336657 v 9.231856 h -0.619746 c -3.264132,0 -5.913021,2.646958 -5.913021,5.91302 v 23.885054 c 0,3.266062 2.648245,5.913021 5.913021,5.913021 h 31.914094 c 3.264131,0 5.91302,-2.646318 5.91302,-5.913021 V 50.341729 c -6.44e-4,-3.266062 -2.648889,-5.91302 -5.91302,-5.91302 z M 40.454734,35.196853 c 0,-5.263028 4.281598,-9.544626 9.545267,-9.544626 5.263668,0 9.545266,4.281598 9.545266,9.544626 v 9.231856 H 40.454734 Z m 12.012672,29.776835 v 6.209701 c 0,1.362416 -1.10499,2.467405 -2.467405,2.467405 -1.362416,0 -2.467406,-1.104989 -2.467406,-2.467405 V 64.973688 C 45.565234,64.04632 44.201534,62.051286 44.201534,59.7319 c 0,-3.202993 2.595474,-5.79911 5.798467,-5.79911 3.202992,0 5.798466,2.596117 5.798466,5.79911 0,2.319386 -1.363702,4.313776 -3.331061,5.241788 z"
     id="path492"
     style="fill:#ff0000;stroke-width:0.6435591" />
</svg>
