<?xml version="1.0" encoding="UTF-8" standalone="no"?>
<svg
   xmlns:dc="http://purl.org/dc/elements/1.1/"
   xmlns:cc="http://creativecommons.org/ns#"
   xmlns:rdf="http://www.w3.org/1999/02/22-rdf-syntax-ns#"
   xmlns:svg="http://www.w3.org/2000/svg"
   xmlns="http://www.w3.org/2000/svg"
   xmlns:sodipodi="http://sodipodi.sourceforge.net/DTD/sodipodi-0.dtd"
   xmlns:inkscape="http://www.inkscape.org/namespaces/inkscape"
   height="100px"
   width="100px"
   fill="#E6DA00"
   viewBox="0 0 100 100"
   x="0px"
   y="0px"
   version="1.1"
   id="svg3844"
   sodipodi:docname="key.svg"
   inkscape:version="0.92.3 (2405546, 2018-03-11)">
  <metadata
     id="metadata3848">
    <rdf:RDF>
      <cc:Work
         rdf:about="">
        <dc:format>image/svg+xml</dc:format>
        <dc:type
           rdf:resource="http://purl.org/dc/dcmitype/StillImage" />
      </cc:Work>
    </rdf:RDF>
  </metadata>
  <sodipodi:namedview
     pagecolor="#ffffff"
     bordercolor="#666666"
     borderopacity="1"
     objecttolerance="10"
     gridtolerance="10"
     guidetolerance="10"
     inkscape:pageopacity="0"
     inkscape:pageshadow="2"
     inkscape:window-width="1853"
     inkscape:window-height="1016"
     id="namedview3846"
     showgrid="false"
     inkscape:zoom="5.5696"
     inkscape:cx="46.778943"
     inkscape:cy="43.220339"
     inkscape:window-x="67"
     inkscape:window-y="27"
     inkscape:window-maximized="1"
     inkscape:current-layer="svg3844" />
  <defs
     id="defs3838">
    <style
       id="style3833">
      .cls-1 {
        clip-path: url(#a);
      }
    </style>
    <clipPath
       id="a">
      <rect
         width="100"
         height="100"
         id="rect3835" />
    </clipPath>
  </defs>
  <g
     data-name="icon – 2"
     class="cls-1"
     clip-path="url(#a)"
     id="g3842"
     style="fill:#d4aa00"
     transform="matrix(0.75,0,0,0.75,12.498875,12.392875)">
    <path
       data-name="Path 2359"
       d="m 221.525,1210 a 25.083,25.083 0 0 0 -25.01,25.01 34.457,34.457 0 0 0 0.625,5.627 l -38.14,38.14 v 6.252 l 6.252,6.252 h 12.5 l 6.253,-6.252 v -6.252 h 6.252 v -6.252 h 6.253 v -6.252 h 12.5 l 6.878,-6.878 a 34.461,34.461 0 0 0 5.627,0.625 25.01,25.01 0 0 0 0,-50.02 z m -25.01,43.767 -31.262,31.262 v -6.252 l 31.262,-31.262 z m 31.262,-18.757 a 6.252,6.252 0 1 1 6.252,-6.252 6.271,6.271 0 0 1 -6.252,6.252 z"
       transform="translate(-152.767,-1201.069)"
       id="path3840"
       style="fill:#d4aa00"
       inkscape:connector-curvature="0" />
  </g>
</svg>
